<svg width="219" height="205" viewBox="0 0 219 205" fill="none" xmlns="http://www.w3.org/2000/svg">
<path fill-rule="evenodd" clip-rule="evenodd" d="M148.963 0.896381C144.04 5.48101 144.214 15.6976 149.309 21.2666C151.193 23.3259 152.461 23.2396 154.856 20.8889L156.821 18.9616L159.069 19.5626C162.364 20.4434 162.914 19.9288 163.086 15.802C163.347 9.5272 160.192 4.22481 154.508 1.3857C151.06 -0.336457 150.354 -0.398933 148.963 0.896381ZM154.575 4.44085C158.247 6.75773 160.8 11.2985 160.8 15.5111C160.8 17.321 160.946 17.2643 158.114 16.5513L155.96 16.009L153.835 18.0936L151.71 20.1783L150.548 18.7551C147.664 15.2259 147.131 8.74219 149.393 4.71842C150.661 2.46259 151.379 2.42396 154.575 4.44085ZM37.1435 11.5713C32.9723 12.7636 30.1508 15.1177 28.1179 19.1014C26.6503 21.9762 27.0106 22.9458 29.8001 23.634C32.4117 24.2783 32.7619 24.6437 33.1898 27.1756C33.353 28.1414 33.9007 29.3065 34.4074 29.7643C35.2165 30.4964 35.5681 30.5255 37.3109 30.0038C43.629 28.1113 47.8976 22.3067 47.9367 15.5526C47.9582 11.7873 47.2726 11.1812 42.8313 11.0405C40.9335 10.9804 38.3739 11.2193 37.1435 11.5713ZM86.851 11.3395C80.98 13.1313 76.4371 18.4184 75.3198 24.76C74.8326 27.5238 74.7768 27.5996 72.1309 29.0957C70.649 29.9332 66.1095 32.5896 62.0423 34.9985C57.9751 37.4075 47.992 43.1906 39.8576 47.8496C31.7232 52.5091 24.9071 56.5625 24.71 56.8572C24.5135 57.152 24.3656 62.9666 24.3813 69.7784C24.4142 83.6825 24.7487 82.3968 20.5355 84.5677C18.8628 85.4295 3.53151 94.3593 0.630325 96.1616C0.189493 96.4354 0.0368248 100.9 0.00342844 114.512C-0.0209032 124.405 0.0869187 132.707 0.242927 132.959C0.398936 133.211 2.50577 134.53 4.92509 135.889C7.34441 137.248 13.0809 140.559 17.6729 143.246C29.2324 150.008 32.0968 151.665 82.7958 180.905C94.0789 187.413 108.026 195.496 113.789 198.869C119.553 202.241 124.657 205 125.132 205C125.607 205 128.728 203.419 132.067 201.488C158.549 186.169 155.541 187.715 157.198 188.574C157.927 188.952 158.86 189.262 159.271 189.262C160.065 189.262 177.156 179.643 178.575 178.397C179.335 177.73 179.346 177.556 178.695 176.563C178.299 175.958 177.975 175.368 177.975 175.251C177.975 175.133 179.639 174.07 181.673 172.888C183.706 171.706 192.562 166.558 201.353 161.449C210.143 156.339 217.711 151.815 218.17 151.395C218.935 150.695 219.005 149.226 219 133.82C218.997 124.574 218.862 116.208 218.701 115.23C218.44 113.653 218.077 113.269 215.486 111.828C210.547 109.083 189.266 96.7382 188.979 96.453C188.831 96.3052 188.602 90.1391 188.471 82.7502L188.233 69.3163L177.021 62.8173C161.153 53.6194 123.787 32.0378 114.94 26.9615C107.514 22.6997 107.482 22.6745 106.43 20.1372C105.071 16.857 101.179 13.2324 97.566 11.8813C94.8428 10.8626 89.3276 10.5836 86.851 11.3395ZM98.2816 14.9817C99.8207 15.8187 101.476 17.2376 102.414 18.5243C105.146 22.27 105.738 27.8238 103.568 29.3432C102.35 30.196 102.943 31.6224 104.698 32.0626C108.117 32.9206 105.627 38.078 101.794 38.078C100.932 38.078 99.4701 38.6084 98.4787 39.2808C92.8709 43.0847 85.5061 42.3088 81.3697 37.4776C79.3297 35.0958 77.7863 31.135 77.7863 28.283V26.155L79.8139 26.134C80.9294 26.1226 82.8077 25.9261 83.9885 25.6967C85.6297 25.3781 86.3129 25.4392 86.8887 25.9557C87.6678 26.6553 90.3219 26.7612 92.8147 26.1922C94.0551 25.9089 94.4749 26.1078 95.9615 27.6797C97.1099 28.8935 98.096 29.4935 98.9434 29.4935C100.722 29.4935 100.6 28.0808 98.6495 26.0835C97.7917 25.2045 96.7559 23.9645 96.348 23.3274C95.6099 22.1751 95.5956 22.1732 93.6042 22.9697C90.9898 24.0156 90.2746 23.9798 89.2823 22.7546C88.4722 21.755 88.4102 21.7511 85.3587 22.5161C82.1302 23.3255 78.2601 23.5544 78.2677 22.9358C78.2806 21.9209 81.3163 17.4832 82.8778 16.196C85.5557 13.9897 87.9569 13.2739 92.1171 13.4413C95.0179 13.5577 96.2106 13.8557 98.2816 14.9817ZM45.2616 15.6332C45.5112 18.2529 44.4143 21.2241 42.3175 23.6054C40.4998 25.669 36.9989 27.7918 36.2127 27.3058C36.0214 27.188 35.529 25.9361 35.1187 24.5244C34.4336 22.1699 34.227 21.9233 32.6192 21.5432C30.4222 21.0238 30.2581 20.5312 31.6169 18.5357C33.8568 15.2455 37.2651 13.7198 42.0045 13.8853L45.1056 13.9936L45.2616 15.6332ZM117.941 31.6973C123.187 34.7453 127.301 37.4103 127.084 37.6197C126.866 37.8291 122.745 40.2881 117.926 43.0842L109.165 48.1682L106.141 44.9113C104.478 43.1205 103.107 41.5199 103.095 41.3549C103.082 41.1904 103.717 40.7884 104.506 40.4617C106.236 39.7449 108.672 37.0755 109.081 35.4464C109.444 33.9994 108.963 31.9057 108.029 30.8689C107.53 30.3161 107.423 29.5416 107.649 28.1266C107.823 27.0426 108.063 26.155 108.184 26.155C108.304 26.155 112.695 28.6488 117.941 31.6973ZM82.1021 30.6595C81.1331 31.8265 81.6794 33.5282 83.0753 33.6908C84.8019 33.8911 85.7246 32.6874 85.0228 31.1484C84.4265 29.8402 82.9828 29.5984 82.1021 30.6595ZM75.2124 31.7588C76.9547 37.3774 81.0539 42.0913 85.5333 43.6279C88.9273 44.7921 93.5269 44.6991 96.8585 43.3995L99.471 42.3798L102.888 45.8633C104.768 47.779 106.853 50.4269 107.523 51.7475C109.081 54.8208 110.63 60.8891 111.013 65.416C111.277 68.5351 111.185 69.1832 110.236 70.8701C109.644 71.9231 108.166 73.5346 106.951 74.4513C104.762 76.1024 101.1 78.1393 100.32 78.1393C100.097 78.1393 99.5459 77.0123 99.096 75.6355L98.2769 73.1316L100.769 70.903C103.206 68.7235 103.265 68.6076 103.451 65.6569C103.704 61.6531 103.095 59.3472 101.732 59.1483C100.548 58.9762 100.55 58.9671 100.674 63.6223L100.763 66.9899L98.815 68.7492C97.0631 70.3316 96.6008 70.5086 94.2206 70.5086C91.2632 70.5086 89.2918 71.3279 87.9741 73.1054L87.0896 74.2982L82.156 71.6365C78.5912 69.7131 77.3665 68.8298 77.7429 68.4535C78.0812 68.1154 78.2634 64.8714 78.2634 59.1908C78.2634 51.8267 78.1494 50.4045 77.5416 50.1713C77.1446 50.0187 76.4877 50.1698 76.0817 50.5065C75.4543 51.0273 75.3656 52.43 75.4915 59.8556C75.6089 66.7953 75.5087 68.6414 75.0039 68.8346C73.66 69.3492 73.4648 69.0363 73.742 66.8124C74.3975 61.5496 69.2755 57.5187 64.8438 59.8093C61.8629 61.3503 61.3067 66.2048 63.7059 69.7383L64.8429 71.4133L62.8057 71.7185C60.2599 72.1001 59.7952 72.3881 59.5858 73.7144C59.4307 74.695 58.7437 74.3812 50.3536 69.4994C39.0814 62.9408 37.7823 62.2712 36.9488 62.5912C36.5805 62.7324 36.2795 63.277 36.2795 63.8012C36.2795 64.5037 37.5022 65.4666 40.9311 67.463C43.4892 68.9524 48.304 71.761 51.6294 73.7039L57.6765 77.2365L56.4184 79.6607C55.2858 81.8431 55.1694 82.5427 55.2552 86.67C55.3077 89.1914 55.5506 92.9715 55.7948 95.0695C56.0386 97.1679 56.1631 98.9597 56.0711 99.0518C55.8936 99.2292 30.7648 84.8405 28.5186 83.2752L27.199 82.3553L27.3259 70.1747L27.4533 57.9947L31.0315 55.953C32.9995 54.8303 43.5193 48.7419 54.4089 42.4242C65.2985 36.106 74.3761 30.9338 74.5807 30.9304C74.7859 30.9271 75.0702 31.2996 75.2124 31.7588ZM90.6868 32.5705C89.4192 34.0972 91.2808 36.4422 92.9339 35.4015C94.5856 34.3614 93.9974 31.8781 92.099 31.8781C91.6386 31.8781 91.0031 32.1895 90.6868 32.5705ZM141.401 45.1536C147.216 48.5207 159.166 55.4183 167.956 60.4823C176.747 65.5457 184.426 69.9878 185.02 70.3531L186.102 71.0174L185.974 83.7259L185.847 96.4344L183.462 97.8404C179.401 100.234 173.163 103.849 154.121 114.844C144.018 120.678 132.102 127.562 127.64 130.142C123.179 132.722 119.207 134.942 118.814 135.076C118.418 135.212 110.685 131.017 101.402 125.631C87.7985 117.738 84.7351 115.776 84.8725 115.045C84.9656 114.551 85.1807 109.962 85.3511 104.847C85.5214 99.7318 85.8458 95.2598 86.0715 94.9092C86.2971 94.5582 86.8773 94.3751 87.3606 94.5015C87.8438 94.6274 94.6853 98.4523 102.564 103L116.888 111.269L117.017 120.339L117.146 129.408H118.339H119.532L119.77 120.123L120.009 110.836L131.22 104.336C137.387 100.762 149.624 93.7026 158.415 88.6496C167.205 83.5967 175.216 78.9386 176.216 78.2976C178.122 77.0767 178.441 75.665 176.879 75.3641C176.165 75.2267 156.487 86.3404 127.513 103.245C123.768 105.43 120.078 107.541 119.313 107.936C117.932 108.651 117.832 108.604 104.176 100.734C96.6152 96.3772 90.2479 92.6458 90.027 92.4421C89.8056 92.2385 91.7503 91.4115 94.348 90.6045C96.9682 89.7909 99.9729 88.4851 101.095 87.6729C103.499 85.9317 105.85 82.4154 106.24 79.9759C106.46 78.5962 106.977 77.8951 108.667 76.6823C111.293 74.797 113.424 71.5516 113.835 68.8136C114.212 66.3021 113.009 58.3772 111.599 54.0825C111.03 52.3522 110.668 50.8337 110.793 50.7083C111.06 50.4412 130.428 39.0805 130.666 39.0514C130.755 39.0409 135.585 41.7865 141.401 45.1536ZM72.7602 41.4827C69.859 44.1559 67.0122 48.6246 65.7775 52.4443C64.6544 55.9172 64.8305 57.3065 66.3633 57.069C67.1062 56.954 67.6066 56.1518 68.3934 53.8164C69.8213 49.5766 71.4887 46.902 74.6585 43.7672C76.5607 41.8862 77.2553 40.8771 77.0378 40.3095C76.5287 38.9842 75.0244 39.3967 72.7602 41.4827ZM128.852 55.8814C127.012 56.3636 126.626 56.6912 126.021 58.2865C124.485 62.3408 127.264 70.4079 131.562 74.3678C134.227 76.8235 138.359 78.735 141.581 79.002C144.432 79.2386 144.499 79.1575 145.619 74.1031L146.249 71.2592L148.744 70.5262C150.117 70.1232 151.61 69.4198 152.063 68.9633C152.84 68.1779 152.832 68.0252 151.896 66.1018C147.991 58.0781 137.772 53.546 128.852 55.8814ZM140.336 59.3176C141.489 59.7235 143.243 60.6163 144.234 61.3021C146.075 62.575 148.873 65.9755 148.873 66.9384C148.873 67.2326 147.704 67.8412 146.276 68.2914C143.502 69.1656 143.537 69.1131 142.66 73.5341L142.107 76.3217L140.361 76.0027C136.515 75.2997 131.56 71.0613 129.807 66.9746C128.793 64.6086 128.142 60.0492 128.701 59.2246C129.556 57.9651 136.655 58.0219 140.336 59.3176ZM69.2402 62.5354C71.3866 64.1827 71.6843 67.1239 69.8499 68.5661C68.2521 69.8228 67.6868 69.8085 66.4836 68.4817C63.5566 65.2548 65.9779 60.0316 69.2402 62.5354ZM81.5434 74.529C84.748 76.327 86.3739 77.516 86.3739 78.0611C86.3739 78.6377 85.4136 79.2448 83.1536 80.0961L79.9332 81.3099L72.7769 77.7454C68.6224 75.676 65.9206 74.0764 66.3361 73.9319C68.7803 73.0825 75.2887 71.5511 75.9376 71.6732C76.3646 71.7533 78.887 73.0386 81.5434 74.529ZM96.4424 76.4701C97.6118 80.2272 97.5951 80.3713 95.8809 81.2574C93.9449 82.258 91.9721 81.793 90.4421 79.9754C89.121 78.4059 88.9416 77.1993 89.7913 75.604C90.6811 73.9343 91.7336 73.3663 93.7059 73.4912C95.5188 73.6066 95.5675 73.6591 96.4424 76.4701ZM9.54046 103.355C31.5577 116.145 83.5357 146.189 101.641 156.591C108.857 160.737 116.747 165.284 119.174 166.695L123.587 169.262V173.539C123.587 175.891 123.423 177.816 123.222 177.816C123.022 177.816 119.104 175.646 114.516 172.994C109.927 170.342 101.235 165.332 95.2001 161.86C82.967 154.822 58.4713 140.669 43.1973 131.813C22.316 119.707 18.7664 117.724 17.9773 117.724C16.8877 117.724 16.4268 119.075 17.2498 119.857C17.6138 120.203 21.4539 122.519 25.7835 125.003C34.6798 130.108 78.7104 155.566 87.8052 160.863C91.0852 162.774 99.6728 167.714 106.889 171.842C114.105 175.97 120.814 179.864 121.798 180.496L123.587 181.644V191.465C123.587 199.495 123.47 201.242 122.945 201.041C122.39 200.828 107.508 192.277 80.6489 176.739C76.5817 174.386 68.5308 169.729 62.758 166.391C56.9852 163.053 44.5331 155.85 35.0867 150.383C25.6403 144.917 14.4764 138.464 10.278 136.045L2.6446 131.644L2.51912 115.623C2.44995 106.811 2.54727 99.6007 2.73525 99.6007C2.9237 99.6007 5.98566 101.29 9.54046 103.355ZM68.7216 109.23C68.7216 109.449 68.5322 110.002 68.3003 110.457C68.0685 110.913 67.6014 111.878 67.2627 112.602C66.5847 114.051 63.2398 115.857 59.4842 116.803C53.8221 118.228 52.3097 113.439 57.4022 110.21C59.3053 109.004 59.9059 108.883 64.1072 108.858C66.6448 108.842 68.7216 109.01 68.7216 109.23ZM81.6021 117.159C81.6078 120.653 71.826 124.886 68.213 122.953C66.7646 122.178 66.9864 119.532 68.6386 117.88C69.9711 116.548 70.057 116.531 75.794 116.531C80.2758 116.531 81.6011 116.674 81.6021 117.159ZM216.142 133.609V149.972L204.096 156.921C197.471 160.743 188.163 166.122 183.413 168.874L174.777 173.878L168.626 170.37C165.243 168.44 162.42 166.696 162.352 166.493C162.285 166.291 170.871 161.134 181.433 155.035C191.996 148.935 202.033 143.13 203.738 142.135C206.869 140.308 207.839 138.675 206.003 138.322C205.011 138.131 204.196 138.57 186.324 148.952C178.715 153.372 168.302 159.4 163.185 162.345C158.069 165.291 147.878 171.157 140.539 175.381C133.201 179.605 127.028 183.062 126.823 183.062C126.617 183.062 126.45 179.86 126.45 175.946V168.83L135.156 163.835C139.945 161.088 148.479 156.177 154.121 152.922C174.153 141.365 199.798 126.55 207.769 121.932C212.216 119.355 215.92 117.247 215.998 117.247C216.078 117.247 216.142 124.61 216.142 133.609ZM165.357 171.872C168.755 173.849 172.236 175.823 173.094 176.257C173.951 176.691 174.585 177.252 174.501 177.503C174.304 178.096 160.287 186.358 159.44 186.382C158.665 186.404 143.625 177.84 143.625 177.377C143.625 177.068 158.372 168.298 158.916 168.284C159.06 168.28 161.958 169.895 165.357 171.872ZM96.5636 176.152C96.15 177.228 96.6199 177.581 104.503 182.12C116.565 189.064 116.423 188.996 117.207 188.213C117.587 187.834 117.772 187.217 117.619 186.843C117.274 185.999 99.4243 175.726 97.9415 175.518C97.2793 175.425 96.7487 175.669 96.5636 176.152ZM146.578 182.704C149.928 184.606 152.673 186.278 152.679 186.42C152.685 186.561 148.034 189.351 142.344 192.62C136.654 195.887 130.75 199.279 129.224 200.155L126.45 201.748V194.371C126.45 189.046 126.616 186.859 127.046 186.508C128.092 185.656 139.551 179.247 140.028 179.247C140.281 179.246 143.228 180.802 146.578 182.704Z" fill="#683434"/>
</svg>
