<svg width="738" height="407" viewBox="0 0 738 407" fill="none" xmlns="http://www.w3.org/2000/svg">
<path fill-rule="evenodd" clip-rule="evenodd" d="M91.122 1.78226C87.155 3.76326 84.126 8.92726 84.124 13.7133C84.122 17.0543 83.808 17.2703 77.122 18.5513C75.197 18.9203 70.327 20.7863 66.3 22.6983C56.64 27.2843 48.565 35.3213 43.717 45.1723C36.832 59.1633 37.159 50.8583 37.139 212.28L37.122 358.03H30.171C15.242 358.03 6.878 362.061 2.558 371.34C-3.388 384.111 1.335 397.961 13.581 403.663L18.622 406.01L369.176 406.02L719.729 406.03L724.676 403.554C740.243 395.76 742.575 375.278 729.2 363.828C724.128 359.487 718.845 358.03 708.179 358.03H700.122V210.24C700.122 46.4293 700.559 57.3633 693.474 43.8813C689.158 35.6673 678.884 25.5283 670.936 21.6403C667.949 20.1783 662.831 18.4303 659.563 17.7553L653.622 16.5283L653.562 11.8173C653.493 6.46526 651.487 3.54326 646.404 1.39226C642.475 -0.270741 606.659 -0.52474 600.917 1.07026C596.327 2.34526 593.122 6.25626 593.122 10.5833C593.122 17.3383 594.296 17.0303 568.562 17.0303C543.652 17.0303 541.479 17.3833 538.386 21.9343C536.775 24.3053 536.611 28.1733 536.499 66.5303C536.432 89.6303 536.312 108.98 536.232 109.53C536.048 110.807 535.303 109.563 518.057 79.1883C503.494 53.5403 501.545 51.0303 496.196 51.0303C493.876 51.0303 481.126 57.5803 470.122 64.4243L462.622 69.0893L462.122 38.6313C461.447 -2.49775 463.308 -0.15574 431.622 0.25726C413.265 0.49626 410.285 0.759261 407.947 2.34626C405.052 4.31126 403.122 8.64526 403.122 13.1793V16.0303L381.122 16.1803C369.022 16.2623 358.57 16.3753 357.895 16.4303C357.2 16.4873 356.162 14.2463 355.497 11.2553C353.189 0.859258 351.02 0.030259 326.122 0.030259C305.147 0.030259 301.672 0.736258 298.45 5.65126C296.76 8.22926 296.584 12.1733 296.122 57.9853L295.622 107.53L269.787 55.7473C252.296 20.6903 243.184 3.46126 241.575 2.40726C235.349 -1.67174 226.895 0.40126 222.304 7.13226C220.519 9.75026 219.248 10.5533 216.769 10.6323C212.818 10.7573 207.103 12.5613 201.039 15.5993C197.185 17.5293 195.833 17.7443 192.539 16.9473C190.385 16.4263 178.947 16.0893 167.122 16.1983L145.622 16.3963L145.073 11.6873C144.379 5.73226 140.981 2.11826 134.986 0.960259C132.586 0.496259 122.522 0.0982572 112.622 0.0752572C97.429 0.0402572 94.076 0.306258 91.122 1.78226ZM220.288 20.7803C222.284 23.1483 229.413 37.0723 228.894 37.5913C228.201 38.2853 212.762 45.7013 210.579 46.3893C208.804 46.9493 207.953 45.8453 204.106 37.9973C198.861 27.2963 198.956 26.9293 208.179 22.2893C215.494 18.6083 218.175 18.2743 220.288 20.7803ZM191.54 25.6373C192.869 26.1473 193.122 28.3033 193.122 39.1373V52.0303H169.122H145.122V38.5303V25.0303H167.54C179.87 25.0303 190.67 25.3033 191.54 25.6373ZM403.122 39.0303V53.0303H379.622H356.122V39.0303V25.0303H379.622H403.122V39.0303ZM592.122 39.0303V53.0303L568.372 53.0293L544.622 53.0283V40.2793C544.622 33.2673 544.986 26.9683 545.431 26.2803C546.04 25.3403 551.926 25.0303 569.181 25.0303H592.122V39.0303ZM666.622 29.0763C669.922 30.6543 674.275 33.3193 676.296 34.9983C681.603 39.4073 687.834 49.2663 690.145 56.9103C692.113 63.4203 692.142 65.9793 691.884 210.53L691.622 357.53L683.398 357.82L675.174 358.11L675.118 212.82C675.087 132.911 674.675 65.8553 674.203 63.8093C672.218 55.1953 664.113 46.3393 656.441 44.3993C654.433 43.8923 654.234 43.1313 653.941 34.8513C653.765 29.9033 653.788 25.6913 653.99 25.4913C654.843 24.6483 661.038 26.4063 666.622 29.0763ZM84.515 27.6123C85.439 30.0203 85.239 38.5923 84.195 41.3383C83.685 42.6793 82.164 44.0543 80.816 44.3923C76.671 45.4323 68.587 53.5443 66.008 59.2513L63.622 64.5303L63.356 211.28L63.09 358.03H54.606C48.465 358.03 46.133 357.685 46.16 356.78C46.181 356.093 46.069 289.83 45.91 209.53C45.636 70.4783 45.709 63.2443 47.451 57.5303C51.833 43.1503 61.416 32.6563 74.451 27.9643C80.849 25.6613 83.728 25.5603 84.515 27.6123ZM235.596 48.9803C236.435 50.6033 237.122 52.1813 237.122 52.4873C237.122 53.0963 215.963 63.2323 215.6 62.7973C215.477 62.6503 214.637 61.0763 213.733 59.2983L212.089 56.0663L221.856 51.0993C227.227 48.3673 232.173 46.1093 232.846 46.0813C233.52 46.0533 234.757 47.3583 235.596 48.9803ZM137.122 55.0303V59.0303H115.122H93.122V55.0303V51.0303H115.122H137.122V55.0303ZM645.622 55.0303C645.622 58.4783 645.547 58.5403 640.622 59.1713C637.872 59.5243 627.742 59.5693 618.11 59.2723L600.598 58.7323L600.967 54.8623L601.336 50.9923L623.479 51.2613L645.622 51.5303V55.0303ZM193.122 65.5483V70.0663L169.372 69.7983L145.622 69.5303L145.315 65.2803L145.007 61.0303H169.065H193.122V65.5483ZM261.996 102.494C273.013 124.474 281.936 142.505 281.824 142.562C281.713 142.619 276.978 145.266 271.302 148.444C265.626 151.622 260.816 154.057 260.613 153.854C260.242 153.483 240.488 113.114 228.402 88.0303C224.825 80.6053 221.491 73.7583 220.994 72.8153C220.226 71.3593 221.637 70.3533 230.356 66.1413C236.002 63.4133 240.924 61.4843 241.294 61.8553C241.664 62.2263 250.98 80.5143 261.996 102.494ZM402.929 65.2803L402.622 69.5303H379.377H356.131L356.127 65.2803L356.122 61.0303H379.679H403.237L402.929 65.2803ZM592.122 66.0303V70.0303H568.274H544.426L544.336 66.8353C544.286 65.0783 544.469 63.2783 544.742 62.8353C545.016 62.3923 555.788 62.0303 568.681 62.0303H592.122V66.0303ZM483.38 73.2803C484.716 75.6183 490.455 85.4053 496.133 95.0303C501.811 104.655 507.08 113.655 507.843 115.03C508.605 116.405 510.155 119.105 511.287 121.03C523.131 141.179 534.729 162.113 535.851 165.368C536.698 167.827 536.984 170.887 536.587 173.236C536.047 176.431 535.342 177.329 532.408 178.555C527.464 180.621 526.797 180.457 525.186 176.78C524.403 174.993 522.559 171.505 521.089 169.03C518.08 163.965 501.392 134.451 496.775 126.03C495.116 123.005 492.266 118.189 490.441 115.328C488.615 112.467 487.122 109.938 487.122 109.708C487.122 109.477 484.285 104.393 480.819 98.4103C477.352 92.4263 473.097 85.0353 471.363 81.9853L468.21 76.4403L473.181 73.1863C475.916 71.3963 478.666 70.2483 479.292 70.6353C479.992 71.0683 480.156 70.8943 479.717 70.1853C479.325 69.5503 479.442 69.0303 479.977 69.0303C480.513 69.0303 482.044 70.9423 483.38 73.2803ZM184.418 79.7723C180.455 79.9613 173.705 79.9623 169.418 79.7743C165.13 79.5863 168.372 79.4313 176.622 79.4303C184.872 79.4293 188.38 79.5823 184.418 79.7723ZM193.122 111.03V143.03L171.872 142.801L150.622 142.573L171.372 142.281L192.122 141.989V110.51C192.122 93.1963 192.347 79.0303 192.622 79.0303C192.897 79.0303 193.122 93.4303 193.122 111.03ZM546.293 83.0303C546.084 85.2303 545.734 87.0303 545.517 87.0303C545.3 87.0303 545.122 85.2303 545.122 83.0303C545.122 80.8303 545.471 79.0303 545.898 79.0303C546.325 79.0303 546.503 80.8303 546.293 83.0303ZM591.907 91.2803L591.692 103.53L591.375 91.7993L591.059 80.0693L569.34 79.7793L547.622 79.4893L569.872 79.2593L592.122 79.0303L591.907 91.2803ZM545.847 140.262C545.624 142.059 545.437 140.83 545.432 137.53C545.426 134.23 545.608 132.759 545.837 134.262C546.065 135.765 546.069 138.465 545.847 140.262ZM591.784 137.28C591.507 137.968 591.28 137.405 591.28 136.03C591.28 134.655 591.507 134.093 591.784 134.78C592.062 135.468 592.062 136.593 591.784 137.28ZM392.372 142.777C386.185 142.952 376.06 142.952 369.872 142.777C363.685 142.601 368.747 142.458 381.122 142.458C393.497 142.458 398.56 142.601 392.372 142.777ZM567.409 142.766C564.541 142.967 559.591 142.969 556.409 142.77C553.226 142.571 555.572 142.406 561.622 142.404C567.672 142.402 570.276 142.565 567.409 142.766ZM587.372 142.762C585.035 142.973 581.209 142.973 578.872 142.762C576.535 142.552 578.447 142.379 583.122 142.379C587.797 142.379 589.709 142.552 587.372 142.762ZM291.379 159.587L295.622 168.143L293.122 170.032C291.747 171.071 289.006 172.785 287.031 173.841C285.055 174.896 281.369 176.973 278.838 178.456L274.237 181.153L272.482 177.841C271.517 176.02 269.446 171.859 267.88 168.595C265.213 163.038 265.145 162.592 266.805 161.595C271.66 158.679 285.716 151.132 286.379 151.084C286.796 151.054 289.046 154.88 291.379 159.587ZM193.899 166.28L193.622 180.53L169.372 180.798L145.122 181.066V166.548V152.03H169.649H194.177L193.899 166.28ZM403.122 166.53V181.03H379.622H356.122V166.53V152.03H379.622H403.122V166.53ZM592.515 153.612C593.313 155.691 593.294 170.495 592.486 176.39L591.85 181.03H568.537H545.225L544.923 166.528L544.622 152.027L568.265 152.028C588.901 152.03 591.985 152.231 592.515 153.612ZM666.912 197.78L667.203 206.03H369.662H72.122V197.528V189.027L369.372 189.278L666.622 189.53L666.912 197.78ZM131.88 298.28L132.138 358.03H121.13H110.122V298.697C110.122 266.063 110.437 239.049 110.821 238.664C111.206 238.279 116.044 238.092 121.571 238.247L131.622 238.53L131.88 298.28ZM289.622 239.077C291.016 239.708 290.41 239.798 287.622 239.374C285.422 239.039 283.435 238.599 283.205 238.397C282.346 237.64 287.702 238.207 289.622 239.077ZM452.872 238.772L446.122 239.121L445.908 251.326L445.694 263.53L445.374 252.091C445.197 245.8 445.279 240.062 445.556 239.341C445.914 238.41 448.023 238.087 452.841 238.226L459.622 238.422L452.872 238.772ZM616.821 239.396C617.957 240.531 618.472 299.144 617.624 330.78L616.894 358.03H605.258H593.622L593.887 298.601C594.135 243.199 594.271 239.136 595.887 238.661C598.502 237.894 615.931 238.505 616.821 239.396ZM247.862 254.743C247.663 257.926 247.498 255.58 247.496 249.53C247.494 243.48 247.657 240.876 247.858 243.743C248.059 246.611 248.061 251.561 247.862 254.743ZM410.36 248.195C410.789 250.761 411.023 276.411 410.881 305.195L410.622 357.53L399.122 357.808L387.622 358.086V302.214C387.622 255.775 387.859 246.056 389.023 244.651C390.194 243.239 392 243.008 400.002 243.246L409.58 243.53L410.36 248.195ZM184.122 259.55V273.069L162.372 272.8L140.622 272.53L140.339 260.588C140.183 254.02 140.281 248.058 140.557 247.338C140.949 246.317 145.777 246.03 162.591 246.03H184.122V259.55ZM488.853 259.31C488.643 261.631 488.474 259.48 488.477 254.53C488.48 249.58 488.652 247.681 488.858 250.31C489.065 252.939 489.062 256.989 488.853 259.31ZM562.904 246.874C563.861 247.481 564.115 250.844 563.904 260.109L563.622 272.53L542.372 272.8L521.122 273.07V260.217C521.122 253.147 521.422 247.063 521.789 246.697C522.749 245.736 561.374 245.903 562.904 246.874ZM436.122 305.03V358.03H427.622H419.122V305.03V252.03H427.622H436.122V305.03ZM585.595 254.945C586.001 256.223 585.618 352.345 585.187 357.28C585.151 357.693 582.17 358.03 578.562 358.03H572.002L572.518 305.28C572.802 276.268 573.053 252.53 573.076 252.53C580.397 252.53 585.118 253.441 585.595 254.945ZM281.872 262.776C275.959 262.953 266.285 262.953 260.372 262.776C254.46 262.599 259.297 262.455 271.122 262.455C282.947 262.455 287.785 262.599 281.872 262.776ZM477.372 262.776C471.735 262.954 462.509 262.954 456.872 262.776C451.235 262.598 455.847 262.452 467.122 262.452C478.397 262.452 483.009 262.598 477.372 262.776ZM238.122 273.53V278.03H215.622H193.122V273.53V269.03H215.622H238.122V273.53ZM292.929 276.28C292.69 279.584 292.232 280.511 290.872 280.447C289.91 280.401 279.672 280.288 268.122 280.197L247.122 280.03V276.03V272.03H270.179H293.237L292.929 276.28ZM490.122 276.03V280.03H467.622H445.122V276.03V272.03H467.622H490.122V276.03ZM184.122 285.53V290.03H162.622H141.122V285.53V281.03H162.622H184.122V285.53ZM552.403 282.025C564.076 282.03 564.981 282.471 563.711 287.532L563.084 290.03H542.103H521.122V286.197C521.122 284.088 521.459 282.011 521.872 281.579C522.285 281.148 526.897 281.071 532.122 281.407C537.347 281.744 546.474 282.022 552.403 282.025ZM293.122 323.53V358.03H270.122H247.122V323.53V289.03H270.122H293.122V323.53ZM490.122 315.03V341.03H467.622H445.122V315.03V289.03H467.622H490.122V315.03ZM184.622 319.53V340.53L162.372 340.799L140.122 341.068V320.216C140.122 308.747 140.431 299.055 140.808 298.678C141.185 298.301 151.197 298.113 163.058 298.261L184.622 298.53V319.53ZM564.122 319.53V341.03H542.622H521.122V319.53V298.03H542.622H564.122V319.53ZM184.122 353.53V358.03H162.122H140.122V354.197C140.122 352.088 140.422 350.063 140.789 349.697C141.155 349.33 151.055 349.03 162.789 349.03H184.122V353.53ZM489.122 353.53V358.03H467.122H445.122V353.53V349.03H467.122H489.122V353.53ZM563.429 350.937C563.896 351.404 564.131 353.079 563.95 354.658L563.622 357.53L542.372 357.8L521.122 358.07V354.133C521.122 351.893 521.661 350.001 522.372 349.742C524.56 348.947 562.545 350.053 563.429 350.937ZM717.622 367.131C730.934 370.76 733.622 389.321 721.775 395.804C718.809 397.428 697.993 397.545 370.095 397.786L21.569 398.041L17.154 395.786C11.581 392.938 9.038 389.461 8.402 383.82C7.8 378.479 10.541 372.329 14.814 369.433C17.329 367.728 20.23 367.474 42.622 366.996C94.879 365.88 713.487 366.004 717.622 367.131Z" fill="black"/>
</svg>
